<?xml version="1.0" encoding="utf-8"?>
<!-- Generator: Adobe Illustrator 16.0.0, SVG Export Plug-In . SVG Version: 6.00 Build 0)  -->
<!DOCTYPE svg PUBLIC "-//W3C//DTD SVG 1.1//EN" "http://www.w3.org/Graphics/SVG/1.1/DTD/svg11.dtd">
<svg version="1.1" id="Layer_1" xmlns="http://www.w3.org/2000/svg" xmlns:xlink="http://www.w3.org/1999/xlink" x="0px" y="0px"
	 viewBox="0 0 800 800" enable-background="new 0 0 800 800" xml:space="preserve">
<g>
	<ellipse cx="398.256" cy="408.419" rx="315.698" ry="312.581"/>
	<g>
		<path fill="#F2F2F2" d="M279.765,553H343v-22.485C321,541.586,299.46,550,279.765,553z"/>
		<path fill="#F2F2F2" d="M343,492.666V434h78.896c0.403-1,0.645-0.865,1.047-1.236C463.684,395.262,495,354.518,514,317.713V267
			h-64v110H343V267h-64v255.271C298,516.186,320,506.168,343,492.666z M295.741,293.638c9.652-8.885,19.458-17.227,29.332-25.02
			c-9.947,7.87-19.86,16.321-29.637,25.322c-2.765,2.544-5.485,5.104-8.164,7.675C290.049,298.941,292.87,296.28,295.741,293.638z"
			/>
		<path fill="#F2F2F2" d="M450,455.095V553h64V381.336C497,406.222,475,431.326,450,455.095z"/>
	</g>
	<g>
		<path fill="#F2F2F2" d="M331.885,286.029c-9.874,7.792-19.68,16.134-29.332,25.02c-2.871,2.642-5.692,5.303-8.47,7.977
			c2.679-2.57,5.399-5.13,8.164-7.675C312.025,302.349,321.938,293.898,331.885,286.029z"/>
		<path fill="#F2F2F2" d="M430.759,227.348c43.771-16.902,80.495-17.338,98.956,2.716c35.255,38.298-9.425,136.784-99.797,219.976
			c-90.372,83.192-192.213,119.586-227.468,81.288c-15.177-16.488-15.529-44.133-3.811-76.904
			c-16.03,41.899-15.93,78.371,4.115,100.146c42.581,46.255,157.271,6.874,250.933-79.345
			c96.853-89.157,141.533-198.185,99.799-243.521C529.921,206.106,483.847,206.292,430.759,227.348z"/>
		<path fill="#F2F2F2" d="M292.829,320.242c0.351-0.339,0.697-0.68,1.049-1.02C293.526,319.563,293.179,319.902,292.829,320.242z"/>
		<path fill="#F2F2F2" d="M335.602,283.121c-0.911,0.705-1.82,1.418-2.73,2.132C333.781,284.537,334.691,283.827,335.602,283.121z"
			/>
	</g>
	<path fill="#F2F2F2" d="M209.333,504.256c0,0,36.695,66.162,171.059-36.895c134.365-103.056,137.551-167.907,145.788-184.241
		c8.237-16.334-26.033,77.665-139.313,161.283C273.587,528.021,209.333,504.256,209.333,504.256z"/>
</g>
</svg>
