
<svg fill="#fff" version="1.1" id="Layer_1" xmlns="http://www.w3.org/2000/svg" xmlns:xlink="http://www.w3.org/1999/xlink" x="0px" y="0px"
	  viewBox="0 0 800 800" enable-background="new 0 0 800 800" xml:space="preserve">
<g>
	<path d="M219.619,688H336v-45.17C295,664.436,255.668,680,219.619,688z"/>
	<path d="M336,568.967V455h143.768c0.737-3,1.505-1.949,2.24-2.674C556.577,379.138,614,299.364,649,227.538V129H531v215H336V129
		H217v497.742C254,614.866,294,595.315,336,568.967z M248.86,180.557c17.666-17.34,35.614-33.619,53.686-48.828
		c-18.206,15.359-36.35,31.851-54.247,49.417c-5.06,4.965-10.039,9.961-14.941,14.979
		C238.442,190.906,243.606,185.712,248.86,180.557z"/>
	<path d="M531,495.644V688h118V351.702C617,400.268,578,449.26,531,495.644z"/>
</g>
<g>
	<path d="M315.016,169.706c-18.072,15.208-36.02,31.487-53.686,48.827c-5.254,5.156-10.418,10.349-15.502,15.569
		c4.903-5.018,9.883-10.013,14.942-14.979C278.666,201.556,296.81,185.064,315.016,169.706z"/>
	<path d="M495.986,55.19c80.115-32.985,147.334-33.837,181.123,5.301c64.528,74.739-17.251,266.939-182.661,429.289
		c-165.41,162.354-351.813,233.378-416.34,158.637c-27.779-32.176-28.424-86.127-6.976-150.08
		c-29.34,81.768-29.157,152.942,7.532,195.438c77.937,90.268,287.858,13.414,459.289-154.845
		C715.224,364.935,797.004,152.164,720.616,63.688C677.486,13.734,593.155,14.096,495.986,55.19z"/>
	<path d="M243.53,236.475c0.643-0.661,1.276-1.326,1.92-1.988C244.807,235.149,244.171,235.813,243.53,236.475z"/>
	<path d="M321.818,164.031c-1.667,1.375-3.332,2.768-4.997,4.16C318.487,166.795,320.152,165.41,321.818,164.031z"/>
</g>
<path d="M90.706,591.584c0,0,67.164,129.117,313.095-71.999c245.932-201.118,251.764-327.678,266.84-359.554
	c15.077-31.877-47.65,151.566-254.99,314.748C208.311,637.963,90.706,591.584,90.706,591.584z"/>
</svg>
